<mxfile host="Electron" agent="Mozilla/5.0 (Windows NT 10.0; Win64; x64) AppleWebKit/537.36 (KHTML, like Gecko) draw.io/26.0.16 Chrome/132.0.6834.196 Electron/34.2.0 Safari/537.36" version="26.0.16">
  <diagram id="C5RBs43oDa-KdzZeNtuy" name="Page-1">
    <mxGraphModel dx="1434" dy="844" grid="1" gridSize="10" guides="1" tooltips="1" connect="1" arrows="1" fold="1" page="1" pageScale="1" pageWidth="827" pageHeight="1169" math="0" shadow="0">
      <root>
        <mxCell id="WIyWlLk6GJQsqaUBKTNV-0" />
        <mxCell id="WIyWlLk6GJQsqaUBKTNV-1" parent="WIyWlLk6GJQsqaUBKTNV-0" />
        <mxCell id="GDgoOHbsDYtngrh4CRVs-2" style="edgeStyle=orthogonalEdgeStyle;rounded=0;orthogonalLoop=1;jettySize=auto;html=1;" edge="1" parent="WIyWlLk6GJQsqaUBKTNV-1" source="GDgoOHbsDYtngrh4CRVs-0" target="GDgoOHbsDYtngrh4CRVs-1">
          <mxGeometry relative="1" as="geometry" />
        </mxCell>
        <mxCell id="GDgoOHbsDYtngrh4CRVs-0" value="Start" style="ellipse;whiteSpace=wrap;html=1;aspect=fixed;" vertex="1" parent="WIyWlLk6GJQsqaUBKTNV-1">
          <mxGeometry x="360" y="40" width="80" height="80" as="geometry" />
        </mxCell>
        <mxCell id="GDgoOHbsDYtngrh4CRVs-4" style="edgeStyle=orthogonalEdgeStyle;rounded=0;orthogonalLoop=1;jettySize=auto;html=1;" edge="1" parent="WIyWlLk6GJQsqaUBKTNV-1" source="GDgoOHbsDYtngrh4CRVs-1" target="GDgoOHbsDYtngrh4CRVs-3">
          <mxGeometry relative="1" as="geometry" />
        </mxCell>
        <mxCell id="GDgoOHbsDYtngrh4CRVs-6" style="edgeStyle=orthogonalEdgeStyle;rounded=0;orthogonalLoop=1;jettySize=auto;html=1;" edge="1" parent="WIyWlLk6GJQsqaUBKTNV-1" source="GDgoOHbsDYtngrh4CRVs-1" target="GDgoOHbsDYtngrh4CRVs-5">
          <mxGeometry relative="1" as="geometry">
            <Array as="points">
              <mxPoint x="280" y="220" />
              <mxPoint x="280" y="470" />
            </Array>
          </mxGeometry>
        </mxCell>
        <mxCell id="GDgoOHbsDYtngrh4CRVs-1" value="Set MineField&lt;div&gt;Size&lt;/div&gt;" style="rounded=0;whiteSpace=wrap;html=1;" vertex="1" parent="WIyWlLk6GJQsqaUBKTNV-1">
          <mxGeometry x="340" y="190" width="120" height="60" as="geometry" />
        </mxCell>
        <mxCell id="GDgoOHbsDYtngrh4CRVs-14" style="edgeStyle=orthogonalEdgeStyle;rounded=0;orthogonalLoop=1;jettySize=auto;html=1;entryX=1;entryY=0.5;entryDx=0;entryDy=0;" edge="1" parent="WIyWlLk6GJQsqaUBKTNV-1" source="GDgoOHbsDYtngrh4CRVs-3" target="GDgoOHbsDYtngrh4CRVs-11">
          <mxGeometry relative="1" as="geometry">
            <Array as="points">
              <mxPoint x="520" y="350" />
              <mxPoint x="520" y="710" />
            </Array>
          </mxGeometry>
        </mxCell>
        <mxCell id="GDgoOHbsDYtngrh4CRVs-3" value="Select Amount of Bombs to be put into&lt;div&gt;the MineField&lt;/div&gt;" style="rounded=0;whiteSpace=wrap;html=1;" vertex="1" parent="WIyWlLk6GJQsqaUBKTNV-1">
          <mxGeometry x="340" y="320" width="120" height="60" as="geometry" />
        </mxCell>
        <mxCell id="GDgoOHbsDYtngrh4CRVs-12" style="edgeStyle=orthogonalEdgeStyle;rounded=0;orthogonalLoop=1;jettySize=auto;html=1;" edge="1" parent="WIyWlLk6GJQsqaUBKTNV-1" source="GDgoOHbsDYtngrh4CRVs-5" target="GDgoOHbsDYtngrh4CRVs-11">
          <mxGeometry relative="1" as="geometry">
            <Array as="points">
              <mxPoint x="280" y="470" />
              <mxPoint x="280" y="640" />
              <mxPoint x="400" y="640" />
            </Array>
          </mxGeometry>
        </mxCell>
        <mxCell id="GDgoOHbsDYtngrh4CRVs-5" value="Place &quot;Land&quot; to form a square that is the size of the MineField" style="rounded=0;whiteSpace=wrap;html=1;" vertex="1" parent="WIyWlLk6GJQsqaUBKTNV-1">
          <mxGeometry x="340" y="440" width="120" height="60" as="geometry" />
        </mxCell>
        <mxCell id="GDgoOHbsDYtngrh4CRVs-9" style="edgeStyle=orthogonalEdgeStyle;rounded=0;orthogonalLoop=1;jettySize=auto;html=1;" edge="1" parent="WIyWlLk6GJQsqaUBKTNV-1" source="GDgoOHbsDYtngrh4CRVs-7" target="GDgoOHbsDYtngrh4CRVs-5">
          <mxGeometry relative="1" as="geometry">
            <Array as="points">
              <mxPoint x="400" y="550" />
              <mxPoint x="480" y="550" />
              <mxPoint x="480" y="470" />
            </Array>
          </mxGeometry>
        </mxCell>
        <mxCell id="GDgoOHbsDYtngrh4CRVs-10" value="Repeat for evert&amp;nbsp;&lt;div&gt;Bome that is&amp;nbsp;&lt;/div&gt;&lt;div&gt;available&lt;/div&gt;" style="edgeLabel;html=1;align=center;verticalAlign=middle;resizable=0;points=[];" vertex="1" connectable="0" parent="GDgoOHbsDYtngrh4CRVs-9">
          <mxGeometry x="0.15" y="-2" relative="1" as="geometry">
            <mxPoint x="-12" y="-1" as="offset" />
          </mxGeometry>
        </mxCell>
        <mxCell id="GDgoOHbsDYtngrh4CRVs-7" value="Place a Bome Onto the Minefield and add&lt;div&gt;1 to all surrounding suqares&lt;/div&gt;" style="rounded=0;whiteSpace=wrap;html=1;" vertex="1" parent="WIyWlLk6GJQsqaUBKTNV-1">
          <mxGeometry x="340" y="560" width="120" height="70" as="geometry" />
        </mxCell>
        <mxCell id="GDgoOHbsDYtngrh4CRVs-8" style="edgeStyle=orthogonalEdgeStyle;rounded=0;orthogonalLoop=1;jettySize=auto;html=1;entryX=0.992;entryY=0.65;entryDx=0;entryDy=0;entryPerimeter=0;" edge="1" parent="WIyWlLk6GJQsqaUBKTNV-1" source="GDgoOHbsDYtngrh4CRVs-3" target="GDgoOHbsDYtngrh4CRVs-7">
          <mxGeometry relative="1" as="geometry">
            <Array as="points">
              <mxPoint x="520" y="350" />
              <mxPoint x="520" y="599" />
            </Array>
          </mxGeometry>
        </mxCell>
        <mxCell id="GDgoOHbsDYtngrh4CRVs-19" style="edgeStyle=orthogonalEdgeStyle;rounded=0;orthogonalLoop=1;jettySize=auto;html=1;" edge="1" parent="WIyWlLk6GJQsqaUBKTNV-1" source="GDgoOHbsDYtngrh4CRVs-11" target="GDgoOHbsDYtngrh4CRVs-15">
          <mxGeometry relative="1" as="geometry">
            <Array as="points">
              <mxPoint x="400" y="840" />
            </Array>
          </mxGeometry>
        </mxCell>
        <mxCell id="GDgoOHbsDYtngrh4CRVs-11" value="Finished MineField" style="rounded=0;whiteSpace=wrap;html=1;" vertex="1" parent="WIyWlLk6GJQsqaUBKTNV-1">
          <mxGeometry x="340" y="680" width="120" height="60" as="geometry" />
        </mxCell>
        <mxCell id="GDgoOHbsDYtngrh4CRVs-32" style="edgeStyle=orthogonalEdgeStyle;rounded=0;orthogonalLoop=1;jettySize=auto;html=1;" edge="1" parent="WIyWlLk6GJQsqaUBKTNV-1" source="GDgoOHbsDYtngrh4CRVs-15" target="GDgoOHbsDYtngrh4CRVs-16">
          <mxGeometry relative="1" as="geometry">
            <Array as="points">
              <mxPoint x="520" y="760" />
              <mxPoint x="280" y="760" />
            </Array>
          </mxGeometry>
        </mxCell>
        <mxCell id="GDgoOHbsDYtngrh4CRVs-33" value="Only Displays A Flag&lt;div&gt;And does not Select&lt;/div&gt;&lt;div&gt;The Square for Viewing&lt;/div&gt;" style="edgeLabel;html=1;align=center;verticalAlign=middle;resizable=0;points=[];" vertex="1" connectable="0" parent="GDgoOHbsDYtngrh4CRVs-32">
          <mxGeometry x="-0.575" relative="1" as="geometry">
            <mxPoint x="-32" y="10" as="offset" />
          </mxGeometry>
        </mxCell>
        <mxCell id="GDgoOHbsDYtngrh4CRVs-15" value="Flag A Square" style="rounded=0;whiteSpace=wrap;html=1;" vertex="1" parent="WIyWlLk6GJQsqaUBKTNV-1">
          <mxGeometry x="460" y="800" width="120" height="60" as="geometry" />
        </mxCell>
        <mxCell id="GDgoOHbsDYtngrh4CRVs-24" style="edgeStyle=orthogonalEdgeStyle;rounded=0;orthogonalLoop=1;jettySize=auto;html=1;" edge="1" parent="WIyWlLk6GJQsqaUBKTNV-1" source="GDgoOHbsDYtngrh4CRVs-16" target="GDgoOHbsDYtngrh4CRVs-22">
          <mxGeometry relative="1" as="geometry">
            <Array as="points">
              <mxPoint x="280" y="920" />
            </Array>
          </mxGeometry>
        </mxCell>
        <mxCell id="GDgoOHbsDYtngrh4CRVs-30" style="edgeStyle=orthogonalEdgeStyle;rounded=0;orthogonalLoop=1;jettySize=auto;html=1;" edge="1" parent="WIyWlLk6GJQsqaUBKTNV-1" source="GDgoOHbsDYtngrh4CRVs-16" target="GDgoOHbsDYtngrh4CRVs-29">
          <mxGeometry relative="1" as="geometry">
            <Array as="points">
              <mxPoint x="280" y="920" />
            </Array>
          </mxGeometry>
        </mxCell>
        <mxCell id="GDgoOHbsDYtngrh4CRVs-16" value="Visit A Square" style="rounded=0;whiteSpace=wrap;html=1;" vertex="1" parent="WIyWlLk6GJQsqaUBKTNV-1">
          <mxGeometry x="220" y="800" width="120" height="60" as="geometry" />
        </mxCell>
        <mxCell id="GDgoOHbsDYtngrh4CRVs-17" style="edgeStyle=orthogonalEdgeStyle;rounded=0;orthogonalLoop=1;jettySize=auto;html=1;entryX=1.017;entryY=0.65;entryDx=0;entryDy=0;entryPerimeter=0;" edge="1" parent="WIyWlLk6GJQsqaUBKTNV-1" source="GDgoOHbsDYtngrh4CRVs-11" target="GDgoOHbsDYtngrh4CRVs-16">
          <mxGeometry relative="1" as="geometry">
            <Array as="points">
              <mxPoint x="400" y="840" />
            </Array>
          </mxGeometry>
        </mxCell>
        <mxCell id="GDgoOHbsDYtngrh4CRVs-20" value="Chose 1" style="edgeLabel;html=1;align=center;verticalAlign=middle;resizable=0;points=[];" vertex="1" connectable="0" parent="GDgoOHbsDYtngrh4CRVs-17">
          <mxGeometry x="-0.5316" y="3" relative="1" as="geometry">
            <mxPoint x="-3" y="43" as="offset" />
          </mxGeometry>
        </mxCell>
        <mxCell id="GDgoOHbsDYtngrh4CRVs-27" style="edgeStyle=orthogonalEdgeStyle;rounded=0;orthogonalLoop=1;jettySize=auto;html=1;" edge="1" parent="WIyWlLk6GJQsqaUBKTNV-1" source="GDgoOHbsDYtngrh4CRVs-21" target="GDgoOHbsDYtngrh4CRVs-26">
          <mxGeometry relative="1" as="geometry" />
        </mxCell>
        <mxCell id="GDgoOHbsDYtngrh4CRVs-21" value="Has A Bomb" style="rounded=0;whiteSpace=wrap;html=1;" vertex="1" parent="WIyWlLk6GJQsqaUBKTNV-1">
          <mxGeometry x="200" y="920" width="120" height="60" as="geometry" />
        </mxCell>
        <mxCell id="GDgoOHbsDYtngrh4CRVs-25" style="edgeStyle=orthogonalEdgeStyle;rounded=0;orthogonalLoop=1;jettySize=auto;html=1;" edge="1" parent="WIyWlLk6GJQsqaUBKTNV-1" source="GDgoOHbsDYtngrh4CRVs-22" target="GDgoOHbsDYtngrh4CRVs-11">
          <mxGeometry relative="1" as="geometry">
            <Array as="points">
              <mxPoint x="120" y="720" />
            </Array>
          </mxGeometry>
        </mxCell>
        <mxCell id="GDgoOHbsDYtngrh4CRVs-22" value="Has No Bomb" style="rounded=0;whiteSpace=wrap;html=1;" vertex="1" parent="WIyWlLk6GJQsqaUBKTNV-1">
          <mxGeometry x="30" y="920" width="120" height="60" as="geometry" />
        </mxCell>
        <mxCell id="GDgoOHbsDYtngrh4CRVs-23" style="edgeStyle=orthogonalEdgeStyle;rounded=0;orthogonalLoop=1;jettySize=auto;html=1;entryX=0.667;entryY=0.067;entryDx=0;entryDy=0;entryPerimeter=0;" edge="1" parent="WIyWlLk6GJQsqaUBKTNV-1" source="GDgoOHbsDYtngrh4CRVs-16" target="GDgoOHbsDYtngrh4CRVs-21">
          <mxGeometry relative="1" as="geometry" />
        </mxCell>
        <mxCell id="GDgoOHbsDYtngrh4CRVs-26" value="Lose&lt;div&gt;Ending&lt;/div&gt;" style="ellipse;whiteSpace=wrap;html=1;aspect=fixed;" vertex="1" parent="WIyWlLk6GJQsqaUBKTNV-1">
          <mxGeometry x="220" y="1040" width="80" height="80" as="geometry" />
        </mxCell>
        <mxCell id="GDgoOHbsDYtngrh4CRVs-28" value="Winning End" style="ellipse;whiteSpace=wrap;html=1;aspect=fixed;" vertex="1" parent="WIyWlLk6GJQsqaUBKTNV-1">
          <mxGeometry x="374" y="1040" width="80" height="80" as="geometry" />
        </mxCell>
        <mxCell id="GDgoOHbsDYtngrh4CRVs-31" style="edgeStyle=orthogonalEdgeStyle;rounded=0;orthogonalLoop=1;jettySize=auto;html=1;" edge="1" parent="WIyWlLk6GJQsqaUBKTNV-1" source="GDgoOHbsDYtngrh4CRVs-29" target="GDgoOHbsDYtngrh4CRVs-28">
          <mxGeometry relative="1" as="geometry" />
        </mxCell>
        <mxCell id="GDgoOHbsDYtngrh4CRVs-29" value="No Safe Squares Left" style="rounded=0;whiteSpace=wrap;html=1;" vertex="1" parent="WIyWlLk6GJQsqaUBKTNV-1">
          <mxGeometry x="354" y="920" width="120" height="60" as="geometry" />
        </mxCell>
      </root>
    </mxGraphModel>
  </diagram>
</mxfile>
